<svg width="3717" height="1215" viewBox="0 0 3717 1215" fill="none" xmlns="http://www.w3.org/2000/svg">
<g clip-path="url(#clip0_5222_2948)">
<path d="M968.95 663.118V841H919.143V427.128H1083.98C1108.09 427.128 1128.65 431.673 1145.65 440.765C1163.04 449.857 1176.28 463.099 1185.37 480.492C1194.86 497.885 1199.6 519.231 1199.6 544.53C1199.6 574.572 1192.49 599.476 1178.26 619.24C1164.03 639.005 1143.47 652.05 1116.59 658.374L1211.46 841H1155.13L1065.6 663.118H968.95ZM968.95 620.426H1083.98C1097.03 620.426 1108.09 618.252 1117.19 613.904C1126.67 609.16 1133.79 602.44 1138.53 593.744C1143.67 584.652 1146.24 573.782 1146.24 561.132V530.299C1146.24 517.65 1143.67 506.977 1138.53 498.28C1133.79 489.189 1126.67 482.469 1117.19 478.12C1108.09 473.377 1097.03 471.005 1083.98 471.005H968.95V620.426ZM1551.01 841H1298.42V427.128H1551.01V471.005H1348.22V609.753H1539.15V653.631H1348.22V797.122H1551.01V841ZM1955.4 841H1903.22L1861.71 718.854H1694.51L1653 841H1602.6L1747.28 427.128H1810.72L1955.4 841ZM1849.26 674.977L1797.08 524.963L1779.3 473.377H1776.33L1758.54 524.963L1706.36 674.977H1849.26ZM2023.96 841V427.128H2162.71C2197.1 427.128 2226.94 434.836 2252.24 450.252C2277.93 465.273 2297.7 488.2 2311.53 519.033C2325.37 549.471 2332.29 587.814 2332.29 634.064C2332.29 680.313 2325.37 718.854 2311.53 749.687C2297.7 780.125 2277.93 803.052 2252.24 818.468C2226.94 833.489 2197.1 841 2162.71 841H2023.96ZM2073.77 797.122H2162.71C2185.63 797.122 2205.79 791.984 2223.19 781.706C2240.58 771.428 2254.22 756.802 2264.1 737.828C2273.98 718.459 2278.92 695.137 2278.92 667.861V600.266C2278.92 572.991 2273.98 549.669 2264.1 530.299C2254.22 510.93 2240.58 496.304 2223.19 486.422C2205.79 476.144 2185.63 471.005 2162.71 471.005H2073.77V797.122ZM2548.49 841H2498.68V677.348L2356.38 427.128H2413.3L2523.58 626.356H2525.36L2635.65 427.128H2692.57L2548.49 675.57V841ZM2858.19 848.115C2824.98 848.115 2796.32 841.791 2772.21 829.141C2748.49 816.097 2728.33 798.308 2711.73 775.777L2748.49 744.944C2763.12 764.313 2779.33 779.137 2797.12 789.414C2814.9 799.297 2835.85 804.238 2859.97 804.238C2889.61 804.238 2912.15 797.122 2927.56 782.892C2943.37 768.661 2951.28 749.687 2951.28 725.97C2951.28 712.925 2948.71 701.857 2943.57 692.765C2938.43 683.673 2930.13 676.163 2918.67 670.233C2907.6 663.908 2892.97 658.77 2874.79 654.817L2840.99 647.108C2816.09 641.179 2794.94 633.471 2777.55 623.984C2760.16 614.497 2746.91 602.243 2737.82 587.222C2728.73 572.2 2724.18 554.214 2724.18 533.264C2724.18 508.756 2729.92 488.2 2741.38 471.598C2752.84 454.601 2768.85 441.753 2789.41 433.057C2810.36 424.361 2834.27 420.012 2861.15 420.012C2892.38 420.012 2919.06 425.744 2941.2 437.208C2963.73 448.671 2982.71 465.471 2998.12 487.608L2960.77 514.883C2949.7 499.071 2935.86 486.619 2919.26 477.528C2903.05 468.436 2882.89 463.89 2858.78 463.89C2832.3 463.89 2811.35 469.622 2795.93 481.085C2780.91 492.549 2773.4 509.349 2773.4 531.485C2773.4 544.53 2776.16 555.4 2781.7 564.097C2787.63 572.793 2796.32 580.106 2807.79 586.036C2819.25 591.57 2833.68 596.313 2851.07 600.266L2884.87 607.974C2911.75 613.904 2933.69 622.007 2950.69 632.285C2967.68 642.563 2980.14 655.212 2988.04 670.233C2996.34 685.254 3000.49 703.043 3000.49 723.598C3000.49 748.897 2994.76 770.835 2983.3 789.414C2971.84 807.993 2955.43 822.421 2934.08 832.699C2913.13 842.976 2887.84 848.115 2858.19 848.115ZM3339.1 841H3086.5V427.128H3339.1V471.005H3136.31V609.753H3327.24V653.631H3136.31V797.122H3339.1V841ZM3703.17 471.005H3571.53V841H3521.73V471.005H3390.09V427.128H3703.17V471.005Z" fill="#313131"/>
<path d="M905.26 341.5V195.774H924.765V322.183C944.146 319.057 962.15 311.492 978.78 299.489C995.409 287.486 1009.04 271.419 1019.67 251.289L1034.86 263.48C1022.98 285.11 1007.41 302.74 988.157 316.369C968.902 329.997 947.459 338.375 923.828 341.5H905.26ZM1223.91 182.083C1230.28 193.211 1235.54 204.276 1239.66 215.279L1227.85 219.968C1222.34 206.715 1216.97 195.649 1211.72 186.772L1223.91 182.083ZM1205.53 228.033C1201.28 216.78 1196.02 205.652 1189.77 194.649L1202.15 189.773C1209.15 202.526 1214.4 213.716 1217.91 223.344L1205.53 228.033ZM1086.43 198.587H1187.71V217.155H1086.43V198.587ZM1069.74 263.855V245.662H1225.03V263.855H1158.64V273.607C1158.64 291.487 1154.26 306.679 1145.51 319.182C1136.88 331.56 1123.88 341.438 1106.5 348.815L1096.19 331.56C1111.69 325.059 1122.82 317.306 1129.57 308.304C1136.32 299.177 1139.7 287.611 1139.7 273.607V263.855H1069.74ZM1393.64 234.785C1381.01 247.413 1366.32 259.103 1349.57 269.856V350.878H1331.37V280.734C1314.49 289.987 1296.18 298.301 1276.42 305.678L1268.73 288.424C1289.61 281.547 1309.93 272.232 1329.69 260.479C1349.57 248.601 1366.7 235.472 1381.07 221.093L1393.64 234.785ZM1598.44 278.484H1448.4V258.978H1598.44V278.484Z" fill="#313131"/>
<path d="M2778.64 307.366C2778.64 313.118 2779.9 317.244 2782.4 319.745C2784.9 322.245 2788.96 323.496 2794.59 323.496H2864.17V341.875H2795.52C2782.52 341.875 2773.27 339.312 2767.77 334.186C2762.27 328.935 2759.51 320.182 2759.51 307.929V255.603L2719.75 262.167L2716.94 243.974L2759.51 237.223V192.023H2778.64V234.222L2870.73 219.593L2874.11 237.223C2864.98 260.354 2846.23 280.797 2817.84 298.551L2806.59 282.797C2818.09 276.171 2827.66 269.419 2835.28 262.542C2842.91 255.665 2849.16 248.226 2854.04 240.223L2778.64 252.602V307.366ZM2973.88 277.733C2971.26 263.48 2966.82 246.975 2960.57 228.22L2978.57 224.094C2984.7 244.099 2989.01 260.604 2991.51 273.607L2973.88 277.733ZM2949.13 335.686C2966.51 328.434 2980.45 320.12 2990.95 310.742C3001.45 301.365 3009.46 290.112 3014.96 276.983C3020.58 263.855 3024.52 247.725 3026.77 228.595L3045.34 231.221C3042.84 251.727 3038.4 269.419 3032.02 284.298C3025.65 299.177 3016.58 312.243 3004.83 323.496C2993.08 334.624 2977.95 344.314 2959.44 352.566L2949.13 335.686ZM2932.62 286.923C2928.37 269.794 2923.25 253.039 2917.24 236.66L2935.06 231.784C2941.19 248.413 2946.25 265.168 2950.25 282.047L2932.62 286.923ZM3234.58 298.364C3221.45 291.362 3207.82 284.86 3193.69 278.859C3179.69 272.732 3167.06 267.731 3155.81 263.855V346.564H3136.3V191.836H3155.81V243.037C3168.44 247.413 3182.5 252.977 3198.01 259.729C3213.64 266.48 3228.7 273.607 3243.21 281.109L3234.58 298.364Z" fill="#313131"/>
<path d="M628.33 257.618L533.734 355.826L251.846 428.995L131.352 400.479L241.574 209.569L600.724 209.906L628.33 257.618Z" stroke="#333333" stroke-width="40"/>
<path d="M325.283 611.047L428.9 717.911L462.076 830.07L241.608 830.135L62.51 519.716L90.0148 472.076L222.233 504.767L325.283 611.047Z" stroke="#333333" stroke-width="40"/>
<path d="M779.22 520.275L600.042 830.621L545.168 830.647L507.626 700.328L605.501 406.423L669.975 330.848L779.22 520.275Z" stroke="#333333" stroke-width="40"/>
</g>
<defs>
<clipPath id="clip0_5222_2948">
<rect width="3717" height="1215" fill="white"/>
</clipPath>
</defs>
</svg>
