<svg width="3764" height="941" viewBox="0 0 3764 941" fill="none" xmlns="http://www.w3.org/2000/svg">
<g clip-path="url(#clip0_5222_2834)">
<path d="M1015.95 522.118V700H966.143V286.128H1130.98C1155.09 286.128 1175.65 290.673 1192.65 299.765C1210.04 308.857 1223.28 322.099 1232.37 339.492C1241.86 356.885 1246.6 378.231 1246.6 403.53C1246.6 433.572 1239.49 458.476 1225.26 478.24C1211.03 498.005 1190.47 511.05 1163.59 517.374L1258.46 700H1202.13L1112.6 522.118H1015.95ZM1015.95 479.426H1130.98C1144.03 479.426 1155.09 477.252 1164.19 472.904C1173.67 468.16 1180.79 461.44 1185.53 452.744C1190.67 443.652 1193.24 432.782 1193.24 420.132V389.299C1193.24 376.65 1190.67 365.977 1185.53 357.28C1180.79 348.189 1173.67 341.469 1164.19 337.12C1155.09 332.377 1144.03 330.005 1130.98 330.005H1015.95V479.426ZM1598.01 700H1345.42V286.128H1598.01V330.005H1395.22V468.753H1586.15V512.631H1395.22V656.122H1598.01V700ZM2002.4 700H1950.22L1908.71 577.854H1741.51L1700 700H1649.6L1794.28 286.128H1857.72L2002.4 700ZM1896.26 533.977L1844.08 383.963L1826.3 332.377H1823.33L1805.54 383.963L1753.36 533.977H1896.26ZM2070.96 700V286.128H2209.71C2244.1 286.128 2273.94 293.836 2299.24 309.252C2324.93 324.273 2344.7 347.2 2358.53 378.033C2372.37 408.471 2379.29 446.814 2379.29 493.064C2379.29 539.313 2372.37 577.854 2358.53 608.687C2344.7 639.125 2324.93 662.052 2299.24 677.468C2273.94 692.489 2244.1 700 2209.71 700H2070.96ZM2120.77 656.122H2209.71C2232.63 656.122 2252.79 650.984 2270.19 640.706C2287.58 630.428 2301.22 615.802 2311.1 596.828C2320.98 577.459 2325.92 554.137 2325.92 526.861V459.266C2325.92 431.991 2320.98 408.669 2311.1 389.299C2301.22 369.93 2287.58 355.304 2270.19 345.422C2252.79 335.144 2232.63 330.005 2209.71 330.005H2120.77V656.122ZM2595.49 700H2545.68V536.348L2403.38 286.128H2460.3L2570.58 485.356H2572.36L2682.65 286.128H2739.57L2595.49 534.57V700ZM2905.19 707.115C2871.98 707.115 2843.32 700.791 2819.21 688.141C2795.49 675.097 2775.33 657.308 2758.73 634.777L2795.49 603.944C2810.12 623.313 2826.33 638.137 2844.12 648.414C2861.9 658.297 2882.85 663.238 2906.97 663.238C2936.61 663.238 2959.15 656.122 2974.56 641.892C2990.37 627.661 2998.28 608.687 2998.28 584.97C2998.28 571.925 2995.71 560.857 2990.57 551.765C2985.43 542.673 2977.13 535.163 2965.67 529.233C2954.6 522.908 2939.97 517.77 2921.79 513.817L2887.99 506.108C2863.09 500.179 2841.94 492.471 2824.55 482.984C2807.16 473.497 2793.91 461.243 2784.82 446.222C2775.73 431.2 2771.18 413.214 2771.18 392.264C2771.18 367.756 2776.92 347.2 2788.38 330.598C2799.84 313.601 2815.85 300.753 2836.41 292.057C2857.36 283.361 2881.27 279.012 2908.15 279.012C2939.38 279.012 2966.06 284.744 2988.2 296.208C3010.73 307.671 3029.71 324.471 3045.12 346.608L3007.77 373.883C2996.7 358.071 2982.86 345.619 2966.26 336.528C2950.05 327.436 2929.89 322.89 2905.78 322.89C2879.3 322.89 2858.35 328.622 2842.93 340.085C2827.91 351.549 2820.4 368.349 2820.4 390.485C2820.4 403.53 2823.16 414.4 2828.7 423.097C2834.63 431.793 2843.32 439.106 2854.79 445.036C2866.25 450.57 2880.68 455.313 2898.07 459.266L2931.87 466.974C2958.75 472.904 2980.69 481.007 2997.69 491.285C3014.68 501.563 3027.14 514.212 3035.04 529.233C3043.34 544.254 3047.49 562.043 3047.49 582.598C3047.49 607.897 3041.76 629.835 3030.3 648.414C3018.84 666.993 3002.43 681.421 2981.08 691.699C2960.13 701.976 2934.84 707.115 2905.19 707.115ZM3386.1 700H3133.5V286.128H3386.1V330.005H3183.31V468.753H3374.24V512.631H3183.31V656.122H3386.1V700ZM3750.17 330.005H3618.53V700H3568.73V330.005H3437.09V286.128H3750.17V330.005Z" fill="#313131"/>
<path d="M952.26 200.5V54.7741H971.765V181.183C991.146 178.057 1009.15 170.492 1025.78 158.489C1042.41 146.486 1056.04 130.419 1066.67 110.289L1081.86 122.48C1069.98 144.11 1054.41 161.74 1035.16 175.369C1015.9 188.997 994.459 197.375 970.828 200.5H952.26ZM1270.91 41.083C1277.28 52.211 1282.54 63.2764 1286.66 74.2793L1274.85 78.9681C1269.34 65.7146 1263.97 54.6491 1258.72 45.7718L1270.91 41.083ZM1252.53 87.0327C1248.28 75.7797 1243.02 64.6518 1236.77 53.6488L1249.15 48.7725C1256.15 61.5259 1261.4 72.7164 1264.91 82.344L1252.53 87.0327ZM1133.43 57.5874H1234.71V76.1548H1133.43V57.5874ZM1116.74 122.855V104.662H1272.03V122.855H1205.64V132.607C1205.64 150.487 1201.26 165.679 1192.51 178.182C1183.88 190.56 1170.88 200.438 1153.5 207.815L1143.19 190.56C1158.69 184.059 1169.82 176.306 1176.57 167.304C1183.32 158.177 1186.7 146.611 1186.7 132.607V122.855H1116.74ZM1440.64 93.7845C1428.01 106.413 1413.32 118.103 1396.57 128.856V209.878H1378.37V139.734C1361.49 148.987 1343.18 157.301 1323.42 164.678L1315.73 147.424C1336.61 140.547 1356.93 131.232 1376.69 119.479C1396.57 107.601 1413.7 94.4722 1428.07 80.0934L1440.64 93.7845ZM1645.44 137.484H1495.4V117.978H1645.44V137.484Z" fill="#313131"/>
<path d="M2825.64 166.366C2825.64 172.118 2826.9 176.244 2829.4 178.745C2831.9 181.245 2835.96 182.496 2841.59 182.496H2911.17V200.875H2842.52C2829.52 200.875 2820.27 198.312 2814.77 193.186C2809.27 187.935 2806.51 179.182 2806.51 166.929V114.603L2766.75 121.167L2763.94 102.974L2806.51 96.2227V51.0231H2825.64V93.2219L2917.73 78.593L2921.11 96.2227C2911.98 119.354 2893.23 139.797 2864.84 157.551L2853.59 141.797C2865.09 135.171 2874.66 128.419 2882.28 121.542C2889.91 114.665 2896.16 107.226 2901.04 99.2235L2825.64 111.602V166.366ZM3020.88 136.733C3018.26 122.48 3013.82 105.975 3007.57 87.2203L3025.57 83.0942C3031.7 103.099 3036.01 119.604 3038.51 132.607L3020.88 136.733ZM2996.13 194.686C3013.51 187.434 3027.45 179.12 3037.95 169.742C3048.45 160.365 3056.46 149.112 3061.96 135.983C3067.58 122.855 3071.52 106.725 3073.77 87.5954L3092.34 90.2211C3089.84 110.727 3085.4 128.419 3079.02 143.298C3072.65 158.177 3063.58 171.243 3051.83 182.496C3040.08 193.624 3024.95 203.314 3006.44 211.566L2996.13 194.686ZM2979.62 145.923C2975.37 128.794 2970.25 112.039 2964.24 95.66L2982.06 90.7837C2988.19 107.413 2993.25 124.168 2997.25 141.047L2979.62 145.923ZM3281.58 157.364C3268.45 150.362 3254.82 143.86 3240.69 137.859C3226.69 131.732 3214.06 126.731 3202.81 122.855V205.564H3183.3V50.8356H3202.81V102.037C3215.44 106.413 3229.5 111.977 3245.01 118.729C3260.64 125.48 3275.7 132.607 3290.21 140.109L3281.58 157.364Z" fill="#313131"/>
<path d="M561.677 823.354L469.406 503.723L682.966 281.784L804.258 491.867L612.873 823.353L561.677 823.354Z" stroke="#313131" stroke-width="40"/>
<path d="M15.6248 491.868L218.557 843.356L499.275 843.356L403.275 510.796L54.5186 424.501L15.6248 491.868Z" fill="#313131"/>
<path d="M218.557 140.379L78.1973 383.488L414.202 466.628L663.313 207.745L624.419 140.379L218.557 140.379Z" fill="#FF2600"/>
</g>
<defs>
<clipPath id="clip0_5222_2834">
<rect width="3764" height="941" fill="white"/>
</clipPath>
</defs>
</svg>
